<?xml version="1.0" encoding="UTF-8"?>
<svg width="50px" height="50px" enable-background="new 0 0 50 50" version="1.1" viewBox="0 0 50 50" xml:space="preserve" xmlns="http://www.w3.org/2000/svg"><ellipse cx="25" cy="25" rx="16.8" ry="16.8" fill="none" stroke="#7691b2" stroke-linecap="round" stroke-miterlimit="10" stroke-width="1.4"/><rect x="7.5004" y="7.5002" width="34.999" height="35" fill="none" stroke-width=".69999"/><g transform="matrix(.69999 0 0 .7 7.5004 7.5002)" fill="#7691b2"><path d="m23.533 30.407v-1.47c0-1.436 0.322-2.188 1.075-3.229l2.404-3.3c1.254-1.721 1.684-2.546 1.684-3.766 0-2.044-1.434-3.335-3.479-3.335-2.008 0-3.299 1.219-3.729 3.407-0.036 0.215-0.179 0.323-0.395 0.287l-2.259-0.395c-0.216-0.036-0.323-0.179-0.288-0.395 0.539-3.443 3.014-5.703 6.744-5.703 3.872 0 6.49 2.546 6.49 6.097 0 1.722-0.608 2.977-1.828 4.663l-2.403 3.3c-0.717 0.968-0.933 1.47-0.933 2.689v1.147c0 0.215-0.143 0.358-0.358 0.358h-2.367c-0.215 4e-3 -0.358-0.14-0.358-0.355zm-0.179 3.444c0-0.215 0.143-0.358 0.359-0.358h2.726c0.215 0 0.358 0.144 0.358 0.358v3.084c0 0.216-0.144 0.358-0.358 0.358h-2.726c-0.217 0-0.359-0.143-0.359-0.358z" fill="#7691b2"/></g></svg>
